<svg xmlns="http://www.w3.org/2000/svg" viewBox="0 0 32 32" fill="none">
  <!-- 背景（ダークブルー） -->
  <rect width="32" height="32" rx="6" fill="#0a1628"/>
  <!-- ボール -->
  <circle cx="16" cy="16" r="11" fill="white" stroke="#e0e0e0" stroke-width="0.5"/>
  <!-- 左ステッチ -->
  <path d="M 10 8 C 12 11, 12 14, 10 17 C 12 20, 12 23, 10 24" stroke="#cc2200" stroke-width="1.6" stroke-linecap="round" fill="none"/>
  <!-- 右ステッチ -->
  <path d="M 22 8 C 20 11, 20 14, 22 17 C 20 20, 20 23, 22 24" stroke="#cc2200" stroke-width="1.6" stroke-linecap="round" fill="none"/>
  <!-- 左横糸 -->
  <line x1="10" y1="10"   x2="13" y2="11"   stroke="#cc2200" stroke-width="1.1" stroke-linecap="round"/>
  <line x1="10" y1="12.5" x2="13" y2="13"   stroke="#cc2200" stroke-width="1.1" stroke-linecap="round"/>
  <line x1="10" y1="15"   x2="13" y2="15"   stroke="#cc2200" stroke-width="1.1" stroke-linecap="round"/>
  <line x1="10" y1="17.5" x2="13" y2="17"   stroke="#cc2200" stroke-width="1.1" stroke-linecap="round"/>
  <line x1="10" y1="20"   x2="13" y2="19.5" stroke="#cc2200" stroke-width="1.1" stroke-linecap="round"/>
  <line x1="10" y1="22.5" x2="13" y2="22.5" stroke="#cc2200" stroke-width="1.1" stroke-linecap="round"/>
  <!-- 右横糸 -->
  <line x1="22" y1="10"   x2="19" y2="11"   stroke="#cc2200" stroke-width="1.1" stroke-linecap="round"/>
  <line x1="22" y1="12.5" x2="19" y2="13"   stroke="#cc2200" stroke-width="1.1" stroke-linecap="round"/>
  <line x1="22" y1="15"   x2="19" y2="15"   stroke="#cc2200" stroke-width="1.1" stroke-linecap="round"/>
  <line x1="22" y1="17.5" x2="19" y2="17"   stroke="#cc2200" stroke-width="1.1" stroke-linecap="round"/>
  <line x1="22" y1="20"   x2="19" y2="19.5" stroke="#cc2200" stroke-width="1.1" stroke-linecap="round"/>
  <line x1="22" y1="22.5" x2="19" y2="22.5" stroke="#cc2200" stroke-width="1.1" stroke-linecap="round"/>
</svg>
